<svg width="38" height="34" viewBox="0 0 38 34" fill="none" xmlns="http://www.w3.org/2000/svg">
<path d="M14.2464 14.684L14.2403 14.689L11.4668 17L14.2353 19.3068C14.5747 19.5866 14.8582 19.9276 15.0711 20.3121L20.7102 4.80462C20.7103 4.80442 20.7104 4.80423 20.7105 4.80403C20.8674 4.37215 21.1079 3.97542 21.4182 3.63648C21.7286 3.29737 22.1028 3.02273 22.5194 2.82826C22.9359 2.6338 23.3867 2.5233 23.846 2.50308C24.3051 2.48287 24.7636 2.55326 25.1954 2.71022L14.2464 14.684ZM14.2464 14.684L14.2523 14.679C14.9571 14.0823 15.3975 13.2313 15.4776 12.3114C15.5578 11.3914 15.2711 10.4771 14.6801 9.76762C14.0891 9.05811 13.2416 8.6109 12.3224 8.52343C11.4031 8.43596 10.4865 8.71531 9.77233 9.30062L9.76598 9.30582L9.75968 9.31108L3.75995 14.3109C3.75986 14.3109 3.75977 14.311 3.75968 14.3111C3.3655 14.6395 3.04835 15.0506 2.83069 15.5152C2.61298 15.9799 2.50012 16.4868 2.50012 17C2.50012 17.5132 2.61298 18.0201 2.83069 18.4848C3.04835 18.9495 3.3655 19.3605 3.75968 19.689C3.75977 19.689 3.75986 19.6891 3.75995 19.6892L9.75484 24.6849C10.1058 24.9805 10.5115 25.2041 10.9488 25.3432C11.3891 25.4832 11.8527 25.5346 12.3129 25.4945C12.6403 25.466 12.9614 25.3916 13.2669 25.274L12.7105 26.804L12.7099 26.8055C12.3935 27.6776 12.4364 28.6398 12.8291 29.4804C13.221 30.3195 13.9295 30.9689 14.7993 31.2866M14.2464 14.684L14.7993 31.2866M14.7993 31.2866C15.1842 31.4281 15.5911 31.5004 16.0012 31.5M14.7993 31.2866L27.2896 7.19605L26.7332 8.72608C27.0387 8.60848 27.3598 8.53406 27.6872 8.50554C28.1474 8.46546 28.611 8.51688 29.0513 8.65686C29.4885 8.79587 29.8941 9.01948 30.2451 9.31494L36.2402 14.3109C36.2402 14.3109 36.2403 14.311 36.2404 14.3111C36.6346 14.6395 36.9517 15.0506 37.1694 15.5152C37.3871 15.9799 37.5 16.4868 37.5 17C37.5 17.5132 37.3871 18.0201 37.1694 18.4848C36.9517 18.9495 36.6346 19.3605 36.2404 19.689C36.2403 19.689 36.2402 19.6891 36.2402 19.6892L30.2452 24.685C29.8942 24.9805 29.4886 25.2042 29.0513 25.3432C28.611 25.4832 28.1474 25.5346 27.6871 25.4945C27.2269 25.4544 26.7792 25.3236 26.3697 25.1096C25.9603 24.8956 25.5973 24.6027 25.3016 24.2478C25.0059 23.8928 24.7834 23.4828 24.647 23.0414C24.5105 22.6001 24.4628 22.136 24.5066 21.6761C24.5503 21.2163 24.6847 20.7696 24.902 20.3618C25.1177 19.957 25.4108 19.5986 25.7648 19.3068L28.5332 17L25.7647 14.6932C25.4254 14.4135 25.1419 14.0724 24.9289 13.6879L19.2897 29.1959C19.2897 29.1959 19.2897 29.196 19.2896 29.196C19.0441 29.8713 18.5967 30.4547 18.0081 30.8669C17.4199 31.2788 16.7193 31.4998 16.0012 31.5M16.0012 31.5C16.0007 31.5 16.0002 31.5 15.9997 31.5L16 29.5L16.0027 31.5C16.0022 31.5 16.0017 31.5 16.0012 31.5ZM27.497 5.84597C27.5172 6.30523 27.4467 6.76397 27.2896 7.196L27.497 5.84597ZM27.497 5.84597C27.4768 5.38668 27.3663 4.93588 27.1718 4.51931M27.497 5.84597L27.1718 4.51931M27.1718 4.51931C26.9773 4.10276 26.7027 3.72858 26.3636 3.41816M27.1718 4.51931L26.3636 3.41816M26.3636 3.41816C26.0247 3.10791 25.6279 2.86743 25.1961 2.71045L26.3636 3.41816Z" fill="#82BC4F" stroke="#16181D" stroke-width="4"/>
</svg>
